<svg width="38" height="38" viewBox="0 0 38 38" fill="none" xmlns="http://www.w3.org/2000/svg">
<path d="M34.2601 32.6877L25.3383 23.7658C27.4822 21.1919 28.5514 17.8905 28.3232 14.5485C28.0951 11.2064 26.5873 8.08092 24.1134 5.82225C21.6396 3.56358 18.3902 2.3456 15.0412 2.4217C11.6922 2.49779 8.50148 3.8621 6.13278 6.2308C3.76408 8.59951 2.39977 11.7902 2.32367 15.1392C2.24758 18.4882 3.46555 21.7376 5.72423 24.2115C7.9829 26.6853 11.1084 28.1931 14.4504 28.4213C17.7925 28.6494 21.0939 27.5803 23.6678 25.4363L32.5896 34.3581L34.2601 32.6877ZM4.72534 15.4559C4.72534 13.353 5.34893 11.2973 6.51724 9.54877C7.68556 7.80026 9.34613 6.43747 11.289 5.63272C13.2318 4.82797 15.3697 4.61741 17.4322 5.02766C19.4947 5.43792 21.3892 6.45057 22.8762 7.93756C24.3632 9.42454 25.3758 11.3191 25.7861 13.3816C26.1963 15.4441 25.9858 17.5819 25.181 19.5248C24.3763 21.4676 23.0135 23.1282 21.265 24.2965C19.5165 25.4648 17.4608 26.0884 15.3579 26.0884C12.5389 26.0853 9.83629 24.9641 7.84299 22.9708C5.84968 20.9774 4.72847 18.2748 4.72534 15.4559Z" fill="#808080"/>
</svg>
