<svg width="32" height="33" viewBox="0 0 32 33" fill="none" xmlns="http://www.w3.org/2000/svg">
<path d="M7.61812 10.4048H26.6657L24.249 18.8619C24.0669 19.4986 23.6824 20.0586 23.1537 20.4572C22.625 20.8559 21.9808 21.0715 21.3187 21.0715H11.1092C10.3586 21.0719 9.63434 20.7954 9.07506 20.2948C8.51579 19.7943 8.16087 19.1051 8.07831 18.3591L6.85621 7.35718H3.80859" stroke="#3B4144" stroke-width="1.52381" stroke-linecap="round" stroke-linejoin="round"/>
<path d="M10.6654 26.4048C11.507 26.4048 12.1892 25.7226 12.1892 24.881C12.1892 24.0394 11.507 23.3572 10.6654 23.3572C9.82383 23.3572 9.1416 24.0394 9.1416 24.881C9.1416 25.7226 9.82383 26.4048 10.6654 26.4048Z" fill="#3B4144"/>
<path d="M22.8558 26.4048C23.6974 26.4048 24.3797 25.7226 24.3797 24.881C24.3797 24.0394 23.6974 23.3572 22.8558 23.3572C22.0143 23.3572 21.332 24.0394 21.332 24.881C21.332 25.7226 22.0143 26.4048 22.8558 26.4048Z" fill="#3B4144"/>
</svg>
